<svg width="226" height="201" viewBox="0 0 226 201" fill="none" xmlns="http://www.w3.org/2000/svg">
<circle cx="109" cy="140" r="50" fill="#F1ED3D"/>
<path d="M145.545 66.2114V83.0166H97.2727C88.7376 83.0166 80.552 86.5576 74.5167 92.8608C68.4815 99.1639 65.0909 107.713 65.0909 116.627V150.237C65.0909 159.151 68.4815 167.7 74.5167 174.003C80.552 180.306 88.7376 183.847 97.2727 183.847H177.727C186.262 183.847 194.448 180.306 200.483 174.003C206.519 167.7 209.909 159.151 209.909 150.237V116.627C209.909 110.727 208.422 104.931 205.597 99.8222C202.773 94.7129 198.71 90.4702 193.818 87.5203V69.0683C212.564 75.992 226 94.6625 226 116.61V150.22C226 163.591 220.914 176.415 211.861 185.869C202.808 195.324 190.53 200.636 177.727 200.636H97.2727C84.47 200.636 72.1917 195.324 63.1388 185.869C54.0859 176.415 49 163.591 49 150.22V116.627C49 103.256 54.0859 90.4325 63.1388 80.9777C72.1917 71.523 84.47 66.2114 97.2727 66.2114H145.545Z" fill="#001F3E"/>
<path d="M80.4546 134.458V117.655H128.727C137.262 117.655 145.448 114.114 151.483 107.812C157.519 101.509 160.909 92.9614 160.909 84.0486V50.4425C160.909 41.5296 157.519 32.9818 151.483 26.6795C145.448 20.3771 137.262 16.8365 128.727 16.8365H48.2727C39.7376 16.8365 31.552 20.3771 25.5167 26.6795C19.4815 32.9818 16.0909 41.5296 16.0909 50.4425V84.0486C16.0911 89.9475 17.5781 95.7425 20.4027 100.851C23.2272 105.96 27.2897 110.202 32.1818 113.151V131.601C22.7674 128.123 14.6173 121.682 8.85386 113.166C3.0904 104.65 -0.00287912 94.4768 2.01081e-06 84.0486V50.4425C2.01081e-06 37.0732 5.08586 24.2515 14.1388 14.7979C23.1917 5.34439 35.47 0.0334473 48.2727 0.0334473H128.727C141.53 0.0334473 153.808 5.34439 162.861 14.7979C171.914 24.2515 177 37.0732 177 50.4425V84.0486C177 97.4179 171.914 110.24 162.861 119.693C153.808 129.147 141.53 134.458 128.727 134.458H80.4546Z" fill="#001F3E"/>
</svg>
