<svg width="259" height="188" viewBox="0 0 259 188" fill="none" xmlns="http://www.w3.org/2000/svg">
<circle cx="129" cy="136" r="50" fill="#F1ED3D"/>
<path d="M90.65 117.451C60.347 117.451 0 133.092 0 164.241V187.636H181.3V164.241C181.3 133.092 120.953 117.451 90.65 117.451ZM30.303 160.899C41.181 153.145 67.4695 144.188 90.65 144.188C113.83 144.188 140.119 153.145 150.997 160.899H30.303ZM90.65 94.0558C115.644 94.0558 135.975 73.0671 135.975 47.2658C135.975 21.4645 115.644 0.47583 90.65 0.47583C65.6565 0.47583 45.325 21.4645 45.325 47.2658C45.325 73.0671 65.6565 94.0558 90.65 94.0558ZM90.65 27.213C101.398 27.213 110.075 36.1699 110.075 47.2658C110.075 58.3617 101.398 67.3186 90.65 67.3186C79.9015 67.3186 71.225 58.3617 71.225 47.2658C71.225 36.1699 79.9015 27.213 90.65 27.213ZM181.818 118.253C196.84 129.482 207.2 144.455 207.2 164.241V187.636H259V164.241C259 137.236 213.675 121.862 181.818 118.253ZM168.35 94.0558C193.343 94.0558 213.675 73.0671 213.675 47.2658C213.675 21.4645 193.343 0.47583 168.35 0.47583C161.357 0.47583 154.882 2.21374 148.925 5.15483C157.083 17.0528 161.875 31.6246 161.875 47.2658C161.875 62.907 157.083 77.4787 148.925 89.3768C154.882 92.3178 161.357 94.0558 168.35 94.0558Z" fill="#001F3E"/>
</svg>
